<?xml version="1.0" encoding="utf-8"?>
<!-- Svg Vector Icons : http://www.onlinewebfonts.com/icon -->
<!DOCTYPE svg PUBLIC "-//W3C//DTD SVG 1.1//EN" "http://www.w3.org/Graphics/SVG/1.1/DTD/svg11.dtd">
<svg version="1.1" xmlns="http://www.w3.org/2000/svg" xmlns:xlink="http://www.w3.org/1999/xlink" x="0px" y="0px" viewBox="0 0 1000 1000" enable-background="new 0 0 1000 1000" xml:space="preserve">
<metadata> Svg Vector Icons : http://www.onlinewebfonts.com/icon </metadata>
<g><path d="M463.2,886.4l0.8-174.2l-0.2-0.2l90.8-129.7H121.8v-47.1h465.7l83.8-119.7H121.8v-47.1h561.1v30.6l111.8-159.7V88c0-43.3-28.1-78.5-62.8-78.5H72.8C38.1,9.5,10,44.7,10,88v824c0,43.3,28.1,78.5,62.8,78.5h659.2c34.7,0,62.8-35.1,62.8-78.5V593.2L630,828.4L463.2,886.4L463.2,886.4z M121.8,217.5h561.1v47.1H121.8V217.5z M188.5,879.6c-41.2,0-74.5-33.4-74.5-74.5s33.4-74.5,74.5-74.5c41.2,0,74.5,33.4,74.5,74.5S229.7,879.6,188.5,879.6z"/><path d="M976.6,214.9l-55.2-38.7c-15.3-10.7-37-7.5-47.7,7.8l-20.9,29.9l109.8,76.9l20.9-29.9C994.1,245.6,991.8,225.6,976.6,214.9L976.6,214.9z"/><path d="M508.9,704.9l109.8,76.9l335.5-479.1l-109.8-76.9L508.9,704.9L508.9,704.9z M628.6,676l-23.7-16.6l236.8-338.2l23.7,16.6L628.6,676L628.6,676z"/><path d="M499.7,720.5l-2.5,118.9l110.8-43L499.7,720.5z"/></g>
</svg>